<svg xmlns="http://www.w3.org/2000/svg" width="1280" height="720" viewBox="0 0 1280 720" role="img" aria-label="Logical Architecture">
<defs>
<marker id="arrow" markerWidth="12" markerHeight="12" refX="10" refY="6" orient="auto"><path d="M2,2 L10,6 L2,10 z" fill="#284b63"/></marker>
<style>text{font-family:Arial,Helvetica,sans-serif}.title{font-size:30px;font-weight:700;fill:#102a43}.box-title{font-size:18px;font-weight:700;fill:#102a43}.box-body{font-size:13px;fill:#243b53}.label{font-size:13px;font-weight:700;fill:#284b63}.box{fill:#f7fbff;stroke:#2f6f8f;stroke-width:2;rx:8}.accent{fill:#e7f5ec;stroke:#2f855a}.store{fill:#fff8e6;stroke:#b7791f}.gpu{fill:#f3edff;stroke:#6b46c1}</style>
</defs>
<rect x="0" y="0" width="100%" height="100%" fill="#ffffff"/>
<text x="40" y="48" class="title">Logical Architecture</text>
<rect x="40" y="100" width="180" height="92" class="box"/>
<text x="56" y="128" class="box-title">Researchers</text>
<text x="56" y="154" class="box-body">Search, select, ask</text>
<text x="56" y="172" class="box-body">Review evidence</text>
<rect x="280" y="80" width="220" height="132" class="box accent"/>
<text x="296" y="108" class="box-title">Streamlit GUI</text>
<text x="296" y="134" class="box-body">Tenant selector</text>
<text x="296" y="152" class="box-body">Search table</text>
<text x="296" y="170" class="box-body">Chat, summary, graph tabs</text>
<rect x="560" y="80" width="220" height="132" class="box accent"/>
<text x="576" y="108" class="box-title">FastAPI REST API</text>
<text x="576" y="134" class="box-body">API-key middleware</text>
<text x="576" y="152" class="box-body">Tenant middleware</text>
<text x="576" y="170" class="box-body">Routers and domain services</text>
<rect x="850" y="70" width="170" height="84" class="box store"/>
<text x="866" y="98" class="box-title">OpenSearch</text>
<text x="866" y="124" class="box-body">Hybrid text/vector</text>
<text x="866" y="142" class="box-body">Triplet indexes</text>
<rect x="1050" y="70" width="170" height="84" class="box store"/>
<text x="1066" y="98" class="box-title">Postgres</text>
<text x="1066" y="124" class="box-body">Annotations</text>
<text x="1066" y="142" class="box-body">RLS tenant context</text>
<rect x="850" y="190" width="170" height="84" class="box store"/>
<text x="866" y="218" class="box-title">Neo4j</text>
<text x="866" y="244" class="box-body">Knowledge graph</text>
<text x="866" y="262" class="box-body">Entities and relations</text>
<rect x="1050" y="190" width="170" height="84" class="box store"/>
<text x="1066" y="218" class="box-title">MinIO</text>
<text x="1066" y="244" class="box-body">Uploaded PDFs/TXT</text>
<text x="1066" y="262" class="box-body">Object storage</text>
<rect x="560" y="300" width="220" height="110" class="box"/>
<text x="576" y="328" class="box-title">Workers</text>
<text x="576" y="354" class="box-body">CPU/GPU background jobs</text>
<text x="576" y="372" class="box-body">Ingest, embed, sync</text>
<rect x="850" y="330" width="170" height="84" class="box"/>
<text x="866" y="358" class="box-title">GROBID</text>
<text x="866" y="384" class="box-body">Scientific metadata</text>
<text x="866" y="402" class="box-body">PDF structure</text>
<rect x="1050" y="330" width="170" height="84" class="box gpu"/>
<text x="1066" y="358" class="box-title">vLLM</text>
<text x="1066" y="384" class="box-body">OpenAI-compatible</text>
<text x="1066" y="402" class="box-body">Zephyr model endpoint</text>
<rect x="850" y="460" width="170" height="84" class="box gpu"/>
<text x="866" y="488" class="box-title">REBEL</text>
<text x="866" y="514" class="box-body">Relation extraction</text>
<text x="866" y="532" class="box-body">Primary extractor</text>
<rect x="1050" y="460" width="170" height="84" class="box"/>
<text x="1066" y="488" class="box-title">CoreNLP</text>
<text x="1066" y="514" class="box-body">OpenIE fallback</text>
<text x="1066" y="532" class="box-body">NLP adapter</text>
<line x1="220" y1="146" x2="280" y2="146" stroke="#284b63" stroke-width="2.2" marker-end="url(#arrow)"/>
<text x="210" y="138" class="label">browser</text>
<line x1="500" y1="146" x2="560" y2="146" stroke="#284b63" stroke-width="2.2" marker-end="url(#arrow)"/>
<text x="490" y="138" class="label">HTTP</text>
<line x1="780" y1="120" x2="850" y2="112" stroke="#284b63" stroke-width="2.2" marker-end="url(#arrow)"/>
<text x="775" y="108" class="label">search</text>
<line x1="780" y1="142" x2="1050" y2="112" stroke="#284b63" stroke-width="2.2" marker-end="url(#arrow)"/>
<text x="875" y="119" class="label">CRUD</text>
<line x1="780" y1="170" x2="850" y2="232" stroke="#284b63" stroke-width="2.2" marker-end="url(#arrow)"/>
<text x="775" y="193" class="label">graph</text>
<line x1="780" y1="196" x2="1050" y2="232" stroke="#284b63" stroke-width="2.2" marker-end="url(#arrow)"/>
<text x="875" y="206" class="label">objects</text>
<line x1="670" y1="212" x2="670" y2="300" stroke="#284b63" stroke-width="2.2" marker-end="url(#arrow)"/>
<text x="630" y="248" class="label">jobs</text>
<line x1="780" y1="355" x2="850" y2="372" stroke="#284b63" stroke-width="2.2" marker-end="url(#arrow)"/>
<text x="775" y="355" class="label">parse</text>
<line x1="780" y1="380" x2="1050" y2="372" stroke="#284b63" stroke-width="2.2" marker-end="url(#arrow)"/>
<text x="875" y="368" class="label">LLM</text>
<line x1="780" y1="405" x2="850" y2="502" stroke="#284b63" stroke-width="2.2" marker-end="url(#arrow)"/>
<text x="775" y="445" class="label">RE</text>
<line x1="780" y1="430" x2="1050" y2="502" stroke="#284b63" stroke-width="2.2" marker-end="url(#arrow)"/>
<text x="875" y="458" class="label">fallback</text>
</svg>
